<?xml version="1.0" standalone="no"?>
<!DOCTYPE svg PUBLIC "-//W3C//DTD SVG 20010904//EN"
 "http://www.w3.org/TR/2001/REC-SVG-20010904/DTD/svg10.dtd">
<svg version="1.0" xmlns="http://www.w3.org/2000/svg"
 width="400.000000pt" height="400.000000pt" viewBox="0 0 400.000000 400.000000"
 preserveAspectRatio="xMidYMid meet">
<metadata>
Created by potrace 1.14, written by Peter Selinger 2001-2017
</metadata>
<g transform="translate(0.000000,400.000000) scale(0.100000,-0.100000)"
fill="#000000" stroke="none">
<path d="M1223 3802 c-40 -33 -68 -96 -83 -184 -13 -75 -10 -130 14 -233 10
-38 19 -81 22 -95 4 -19 -4 -39 -30 -75 -20 -28 -39 -57 -42 -65 -3 -8 -9 -22
-13 -30 -4 -8 -19 -49 -32 -90 -21 -67 -23 -94 -24 -257 0 -101 -3 -183 -8
-183 -4 0 -24 9 -44 20 -21 11 -45 20 -53 20 -9 0 -21 5 -28 12 -8 8 -45 12
-107 12 -77 -1 -99 -4 -115 -19 -20 -18 -20 -18 2 -53 55 -90 171 -189 258
-222 19 -7 77 -16 129 -20 77 -5 96 -9 107 -25 36 -49 122 -152 154 -184 39
-38 147 -111 164 -111 7 0 19 -9 29 -20 17 -20 16 -20 -356 -19 -204 0 -366 3
-359 6 6 2 12 11 12 19 0 8 4 14 8 14 17 0 85 76 106 119 31 62 39 97 26 121
-11 21 -27 21 -141 1 -52 -9 -169 -64 -177 -83 -2 -4 -8 -8 -13 -8 -6 0 -34
-24 -64 -52 -47 -47 -85 -64 -85 -38 0 18 -57 75 -107 107 -68 43 -148 68
-244 77 -89 8 -103 -1 -93 -55 13 -64 72 -143 149 -197 29 -21 125 -63 155
-68 19 -4 47 -13 62 -20 15 -8 39 -14 53 -14 18 0 28 -8 37 -27 32 -80 59
-122 123 -190 59 -64 170 -153 190 -153 4 0 21 -11 38 -24 18 -13 43 -27 57
-31 14 -4 34 -14 45 -21 11 -8 27 -14 37 -14 35 0 20 -24 -37 -61 -61 -40
-102 -87 -136 -156 -34 -69 -34 -119 -1 -109 9 2 47 7 85 11 70 7 160 34 180
54 6 6 16 11 23 11 23 0 108 86 149 151 l43 66 56 7 c83 9 284 61 296 75 10
13 69 41 84 41 23 0 21 -8 -29 -85 -25 -39 -49 -79 -55 -90 -6 -11 -19 -33
-30 -50 -10 -16 -35 -59 -56 -95 -20 -36 -39 -67 -43 -70 -8 -7 -49 -78 -67
-118 -8 -17 -18 -32 -23 -32 -5 0 -11 -9 -14 -20 -9 -36 -34 -12 -41 41 -8 60
-50 143 -95 186 -29 28 -42 29 -61 5 -70 -87 -99 -258 -65 -389 25 -97 23
-103 -37 -103 -99 0 -252 -105 -334 -229 l-28 -43 27 -24 c29 -25 56 -29 142
-25 50 3 185 56 185 72 0 5 5 9 11 9 14 0 83 54 133 105 l40 40 125 0 c125 1
153 6 271 50 50 19 204 106 234 132 35 31 56 21 54 -25 -2 -85 26 -168 86
-249 47 -65 59 -59 110 57 31 69 46 136 46 204 0 79 -10 116 -51 198 -39 77
-39 77 15 203 17 40 42 127 57 196 11 53 10 75 -6 141 -6 24 -5 26 14 21 12
-3 21 -9 21 -14 0 -5 22 -46 50 -93 47 -79 65 -112 136 -246 16 -30 32 -57 35
-60 3 -3 23 -36 44 -75 20 -38 44 -79 51 -90 24 -34 15 -72 -11 -46 -12 12
-85 31 -141 38 -52 6 -154 -23 -154 -44 0 -32 120 -183 146 -183 6 0 17 -6 23
-14 15 -18 81 -49 162 -76 35 -12 67 -25 71 -28 4 -4 -3 -27 -15 -52 -18 -37
-21 -63 -22 -150 0 -95 3 -113 34 -192 37 -96 45 -102 104 -72 38 20 56 43 79
104 23 59 25 244 3 318 -25 83 -22 115 13 160 18 22 32 44 32 50 0 5 6 15 14
21 8 6 16 22 19 34 3 12 16 54 28 92 18 59 22 99 25 250 2 99 3 181 4 182 0 1
21 -10 48 -24 58 -31 139 -53 196 -53 43 0 103 15 120 31 20 18 -114 176 -199
237 -37 26 -168 62 -228 62 -62 0 -77 9 -120 69 -87 121 -167 193 -275 247
-39 20 -41 22 -20 28 33 8 667 5 703 -4 17 -4 24 -8 16 -9 -15 -1 -27 -11 -88
-71 -35 -34 -74 -108 -87 -162 -5 -24 -3 -28 20 -34 34 -9 154 0 179 13 11 6
38 19 60 29 60 28 150 94 171 126 26 38 49 35 74 -9 47 -83 187 -153 339 -168
73 -7 81 -2 81 57 0 114 -187 258 -382 293 -42 8 -57 23 -83 85 -33 79 -111
172 -207 246 -31 24 -58 44 -61 44 -2 0 -39 20 -83 45 -43 25 -85 45 -94 45
-8 0 -20 8 -27 19 -10 16 -7 20 22 34 48 23 99 71 138 130 37 55 65 132 53
144 -18 19 -200 -7 -252 -35 -11 -6 -26 -13 -34 -17 -59 -24 -159 -116 -185
-171 -23 -49 -47 -61 -160 -78 -166 -25 -212 -41 -320 -112 -28 -19 -41 -4
-24 28 6 13 47 82 90 154 44 73 79 137 79 143 0 6 3 11 8 11 4 0 16 17 27 38
33 63 79 137 87 140 4 2 8 9 8 15 0 13 42 77 51 77 4 0 10 -17 14 -37 15 -84
57 -167 102 -205 24 -21 47 -38 51 -38 8 1 40 65 59 120 20 55 27 216 13 285
-26 127 -28 115 23 115 102 0 184 51 312 193 69 77 66 126 -8 129 -83 3 -152
-4 -181 -18 -16 -8 -33 -14 -39 -14 -20 0 -145 -91 -197 -144 l-54 -56 -121 0
c-118 0 -162 -8 -253 -46 -18 -8 -37 -14 -42 -14 -5 0 -40 -18 -77 -40 -38
-22 -74 -44 -80 -48 -7 -4 -32 -21 -56 -39 l-44 -32 -6 78 c-4 70 -10 91 -39
141 -4 8 -11 22 -15 30 -3 8 -22 36 -42 61 l-36 45 -21 -20 c-11 -12 -33 -50
-49 -86 -24 -55 -29 -82 -33 -177 -4 -119 4 -159 55 -248 13 -22 23 -47 23
-57 0 -9 -15 -52 -33 -95 -43 -100 -68 -204 -72 -296 -2 -39 -4 -78 -4 -86 -1
-15 -51 54 -51 70 0 6 -11 25 -24 42 -13 18 -37 57 -53 87 -59 111 -138 245
-145 248 -5 2 -8 8 -8 13 0 5 -18 39 -40 75 -38 62 -47 84 -35 84 3 0 33 -10
66 -21 82 -28 199 -23 232 10 21 21 21 21 3 53 -63 108 -186 197 -321 233 -32
8 -59 16 -61 17 -9 10 -4 40 14 81 34 75 28 198 -15 302 -56 140 -63 145 -120
97z m65 -236 c4 -92 -9 -179 -29 -192 -4 -2 -16 7 -26 22 -25 38 -24 204 2
257 16 34 20 37 33 23 10 -10 16 -44 20 -110z m1832 -93 c0 -26 -162 -133
-202 -133 -9 0 -20 -4 -23 -10 -11 -18 -45 -11 -45 8 0 39 127 127 205 142 29
6 65 2 65 -7z m-1163 -281 c8 -107 -2 -172 -27 -172 -15 0 -21 12 -31 58 -11
56 -8 189 6 224 6 16 9 15 26 -6 14 -18 21 -48 26 -104z m707 62 c4 -10 -12
-45 -39 -88 -25 -40 -45 -76 -45 -80 0 -5 -13 -28 -30 -53 -16 -24 -30 -46
-30 -49 0 -3 -17 -31 -37 -62 -20 -31 -47 -77 -60 -102 -31 -60 -74 -134 -83
-140 -4 -3 -18 -25 -32 -50 -14 -25 -34 -61 -45 -80 -11 -19 -32 -57 -47 -85
-15 -27 -42 -72 -60 -100 -19 -27 -55 -89 -82 -137 -32 -58 -55 -88 -66 -88
-12 0 -18 8 -18 24 0 13 4 26 8 28 24 9 71 219 72 319 0 100 -35 283 -70 360
-10 23 -9 31 13 65 45 70 135 160 212 213 89 60 189 97 301 109 120 14 131 14
138 -4z m-1190 -59 c28 -14 70 -42 93 -64 44 -42 42 -51 -15 -51 -63 0 -235
111 -217 139 11 18 74 7 139 -24z m-227 -27 c6 -7 27 -44 47 -82 21 -37 54
-96 75 -130 21 -33 59 -101 86 -151 27 -49 80 -141 117 -203 37 -62 68 -115
68 -117 0 -3 18 -34 40 -70 22 -36 40 -68 40 -71 0 -3 26 -48 58 -101 107
-179 104 -173 92 -188 -10 -12 -16 -9 -38 17 -69 82 -166 168 -226 199 -23 12
-43 24 -46 28 -5 5 -34 20 -100 49 -40 18 -142 49 -183 56 -87 16 -100 34
-161 222 -34 109 -16 310 40 431 13 28 24 56 24 61 0 13 39 62 50 62 4 0 12
-6 17 -12z m1541 -39 c7 -28 12 -70 12 -94 0 -54 -19 -145 -30 -145 -4 0 -16
12 -26 28 -15 22 -18 47 -18 132 0 111 4 130 33 130 13 0 21 -13 29 -51z
m-808 -601 c0 -94 -4 -159 -10 -163 -5 -3 -10 -21 -11 -38 -2 -98 -42 -73 -64
39 -27 142 -13 322 30 388 l18 28 19 -49 c15 -39 18 -77 18 -205z m1143 184
c-9 -38 -155 -141 -200 -142 -12 0 -25 -5 -29 -11 -5 -8 -10 -7 -16 4 -5 10
-4 23 3 34 25 41 180 132 226 133 16 0 20 -5 16 -18z m-2218 -165 c32 -12 127
-67 159 -92 15 -11 17 -17 7 -29 -13 -16 -53 -9 -126 22 -47 20 -48 20 -99 65
-61 53 -33 69 59 34z m1759 -119 c-3 -13 -7 -23 -8 -24 -165 -124 -212 -152
-324 -193 -92 -34 -112 -37 -112 -18 0 34 219 207 262 207 10 0 26 4 36 9 26
15 104 38 130 40 20 1 22 -2 16 -21z m319 6 c68 -18 103 -32 187 -72 112 -55
312 -294 270 -323 -8 -5 -33 -7 -55 -5 -22 3 -296 8 -610 11 -569 6 -635 9
-635 24 0 9 71 30 130 38 19 3 47 11 62 19 15 8 32 14 38 14 24 0 153 70 227
123 43 31 105 86 138 121 l60 64 63 1 c34 1 90 -6 125 -15z m-1475 -200 c37
-20 74 -42 83 -50 8 -8 19 -14 23 -14 4 0 20 -11 34 -25 15 -13 42 -38 60 -54
28 -24 30 -29 16 -35 -21 -8 -102 3 -110 15 -3 5 -13 9 -22 9 -74 0 -333 204
-292 230 16 10 117 -27 208 -76z m-1215 -101 c91 -47 149 -108 119 -127 -11
-7 -101 26 -152 56 -54 31 -104 84 -96 103 6 18 54 6 129 -32z m550 31 c10
-10 -35 -64 -83 -98 -72 -51 -170 -84 -170 -56 0 6 18 30 41 55 60 65 187 124
212 99z m2591 -233 c7 -11 -81 -101 -99 -101 -7 0 -18 -6 -24 -14 -14 -17 -91
-39 -122 -34 -22 3 -20 7 34 60 31 32 76 66 99 77 45 21 103 27 112 12z m232
-6 c16 -8 36 -15 45 -15 9 0 22 -7 29 -15 7 -8 19 -15 26 -15 22 0 105 -87 98
-103 -14 -38 -183 47 -251 126 -31 36 1 49 53 22z m-1783 -22 c15 -14 -27 -43
-63 -43 -83 0 -264 -77 -376 -161 -75 -57 -67 -50 -163 -143 -65 -63 -74 -68
-103 -62 -18 3 -60 10 -93 16 -135 21 -265 86 -366 182 -75 70 -148 185 -133
209 6 10 1287 13 1297 2z m370 -77 c74 -77 202 -176 227 -176 6 0 10 -4 10
-10 0 -5 6 -10 14 -10 8 0 45 -14 83 -32 37 -17 73 -30 80 -29 7 1 29 -5 49
-14 20 -8 48 -15 63 -15 38 0 46 -8 76 -80 82 -191 85 -391 9 -558 -13 -29
-24 -54 -24 -57 0 -2 -9 -20 -21 -39 -30 -51 -44 -40 -112 84 -11 19 -44 80
-75 135 -30 55 -62 111 -69 125 -8 14 -22 39 -32 55 -10 17 -39 71 -66 120
-26 50 -52 95 -57 101 -4 6 -24 42 -44 80 -20 38 -42 76 -49 84 -7 8 -34 56
-60 105 -26 50 -58 107 -71 127 -29 46 -41 88 -24 88 6 0 49 -38 93 -84z m137
68 c105 -37 173 -71 206 -101 14 -13 27 -23 29 -23 2 0 26 -22 53 -48 55 -53
74 -92 47 -92 -15 0 -118 43 -167 71 -10 5 -22 9 -28 9 -12 0 -114 70 -118 82
-2 4 -8 8 -12 8 -8 0 -29 17 -92 77 -37 34 7 43 82 17z m-350 -80 c0 -3 -6
-18 -14 -32 -51 -100 -80 -287 -65 -427 12 -118 24 -188 33 -204 5 -7 12 -30
17 -50 12 -51 -16 -104 -100 -188 -63 -63 -174 -143 -200 -143 -6 0 -19 -4
-29 -9 -58 -32 -95 -41 -203 -52 -161 -17 -163 -14 -63 138 19 28 34 54 34 58
0 3 17 32 37 63 48 74 61 94 69 112 4 8 18 29 31 46 13 17 23 34 23 38 0 8 67
121 125 211 17 28 53 86 79 130 26 44 51 87 56 95 81 131 120 200 120 209 0 6
11 11 25 11 14 0 25 -3 25 -6z m-236 -52 c7 -12 -91 -110 -148 -146 -108 -69
-273 -125 -290 -98 -7 12 64 78 125 118 24 16 46 32 47 37 2 4 9 7 15 7 6 0
18 6 26 13 9 7 36 21 61 31 25 10 59 25 75 32 33 15 81 18 89 6z m325 -180
c20 -130 10 -268 -28 -367 l-17 -45 -19 33 c-18 28 -20 51 -20 207 0 144 3
186 19 238 l19 62 18 -29 c9 -15 22 -60 28 -99z m876 -51 c3 -5 20 -13 38 -17
29 -6 102 -49 150 -87 9 -8 17 -22 17 -31 0 -19 -23 -20 -70 -3 -69 26 -128
58 -165 93 -31 28 -36 37 -24 45 18 11 46 12 54 0z m-1842 -161 c-3 -10 -15
-26 -27 -34 -13 -8 -37 -28 -54 -45 -17 -17 -37 -31 -45 -31 -8 0 -20 -7 -27
-15 -7 -9 -29 -15 -50 -15 -21 0 -41 -6 -43 -12 -3 -7 -6 -4 -6 8 -2 43 167
163 231 164 21 0 25 -4 21 -20z m113 -327 c23 -56 24 -178 0 -230 l-19 -42
-18 37 c-27 52 -28 246 -1 261 9 6 18 11 19 11 2 0 10 -17 19 -37z m848 -258
c1 -89 -1 -102 -20 -121 l-21 -21 -16 54 c-22 68 -22 156 -1 218 l17 48 20
-39 c16 -31 20 -60 21 -139z m374 86 c9 -6 38 -20 64 -32 52 -24 122 -78 114
-87 -3 -3 -1 -11 5 -19 9 -10 6 -13 -12 -13 -27 1 -111 28 -149 49 -30 17
-110 91 -110 103 0 11 66 10 88 -1z m-1338 -243 c-1 -25 -81 -88 -154 -120
-40 -19 -116 -24 -116 -9 0 10 61 71 71 71 4 0 25 10 46 23 46 27 112 55 136
56 11 1 17 -6 17 -21z m1624 -90 c3 -24 9 -58 12 -76 4 -18 1 -66 -7 -107 -10
-59 -17 -75 -33 -79 -11 -3 -22 -3 -25 -1 -2 3 -4 63 -5 134 -1 113 1 131 18
150 27 30 33 27 40 -21z"/>
<path d="M2096 2814 c-10 -27 -7 -61 8 -73 30 -25 86 32 66 69 -13 25 -65 27
-74 4z"/>
<path d="M1352 2523 c-7 -2 -17 -14 -23 -25 -9 -17 -6 -25 16 -48 29 -30 64
-31 67 -1 3 34 -3 54 -20 67 -19 15 -21 15 -40 7z"/>
<path d="M2724 2295 c-8 -33 11 -55 47 -55 22 0 32 7 41 25 15 33 -4 55 -48
55 -28 0 -35 -5 -40 -25z"/>
<path d="M1250 1711 c-26 -5 -36 -12 -38 -27 -8 -54 74 -73 92 -21 13 37 -7
55 -54 48z"/>
<path d="M2634 1520 c-31 -12 -35 -23 -23 -58 13 -39 48 -49 72 -21 22 27 22
29 -6 61 -17 21 -26 25 -43 18z"/>
<path d="M1859 1194 c-22 -36 -22 -37 -4 -50 40 -29 78 -5 73 46 -5 51 -38 53
-69 4z"/>
</g>
</svg>
